#!OML:ASF H:\IndianDance\Patient Classification 1\Patient 1\Session 1\dancer.ASF
:FULLY-SPECIFIED
:DEGREES
1397
root 7.52911 15.8393 1.30492 18.2449 -80.019 -11.1633
lowerback -0.326063 0.709441 -2.5258
upperback -2.85814 0.856728 -1.08056
thorax -2.77318 0.460125 0.287439
lowerneck -17.373 -5.61258 -4.81645
upperneck 25.8857 -8.53432 5.48838
head 11.8135 -3.76495 1.49801
rclavicle -1.18525e-014 -2.3059e-014
rhumerus -32.3013 39.3068 -39.4529
rradius 61.3192
rwrist -34.4182
rhand 29.3159 -9.35662
rfingers 7.12502
rthumb 53.0909 -28.7913
lclavicle -1.18525e-014 -2.3059e-014
lhumerus 15.0718 -42.6603 -20.3147
lradius 60.0464
lwrist 15.6099
lhand 22.5726 27.021
lfingers 7.12502
lthumb 46.9237 49.7207
rfemur -13.9079 8.72695 13.8069
rtibia 22.0682
rfoot -7.38938 -28.8018
rtoes 2.7792
lfemur -14.6881 -3.88137 -10.5327
ltibia 16.7952
lfoot -7.17237 0.267665
ltoes -6.96008
1398
root 7.53038 15.84 1.31132 18.0456 -79.9052 -10.8779
lowerback -0.23231 0.560653 -2.48489
upperback -2.9464 0.654139 -1.01711
thorax -2.91244 0.360408 0.332431
lowerneck -17.4768 -5.47044 -4.64573
upperneck 26.0485 -8.35988 5.36865
head 11.8719 -3.6822 1.45089
rclavicle 2.61402e-014 3.97569e-015
rhumerus -32.4305 36.6983 -39.308
rradius 62.3471
rwrist -34.7844
rhand 30.5957 -9.98955
rfingers 7.12502
rthumb 54.2417 -28.6628
lclavicle 2.61402e-014 3.97569e-015
lhumerus 14.253 -42.7107 -19.0939
lradius 59.1485
lwrist 15.0796
lhand 22.4628 26.7509
lfingers 7.12502
lthumb 46.8221 49.4951
rfemur -13.944 8.73951 13.7401
rtibia 22.0243
rfoot -7.42482 -28.924
rtoes 2.89491
lfemur -14.8237 -3.8626 -10.5754
ltibia 16.8143
lfoot -7.21175 0.15517
ltoes -6.85191
1399
root 7.53147 15.8405 1.31777 17.8995 -79.8025 -10.6531
lowerback -0.133188 0.414069 -2.43915
upperback -3.0343 0.454718 -0.950604
thorax -3.05436 0.262228 0.378579
lowerneck -17.5836 -5.3243 -4.4823
upperneck 26.2378 -8.18165 5.25245
head 11.9423 -3.59804 1.40671
rclavicle -1.07468e-014 -6.36111e-015
rhumerus -32.6344 34.0287 -39.2114
rradius 63.4215
rwrist -35.174
rhand 31.8725 -10.6709
rfingers 7.12502
rthumb 55.3821 -28.5295
lclavicle -1.07468e-014 -6.36111e-015
lhumerus 13.3377 -42.6969 -17.758
lradius 58.2862
lwrist 14.5383
lhand 22.3856 26.4529
lfingers 7.12502
lthumb 46.7507 49.2282
rfemur -13.9713 8.75146 13.6823
rtibia 21.971
rfoot -7.44764 -29.034
rtoes 2.98625
lfemur -14.9525 -3.83669 -10.6118
ltibia 16.8417
lfoot -7.25543 0.0451441
ltoes -6.73529
1400
root 7.53231 15.841 1.32432 17.8072 -79.7131 -10.4885
lowerback -0.0358348 0.271728 -2.38972
upperback -3.12016 0.261512 -0.880281
thorax -3.19325 0.16708 0.427305
lowerneck -17.6928 -5.17745 -4.32468
upperneck 26.4515 -8.00289 5.13443
head 12.0238 -3.51451 1.36274
rclavicle 1.53934e-014 -7.15625e-015
rhumerus -32.919 31.2966 -39.1583
rradius 64.5464
rwrist -35.591
rhand 33.094 -11.3856
rfingers 7.12502
rthumb 56.465 -28.4088
lclavicle 1.53934e-014 -7.15625e-015
lhumerus 12.3423 -42.6233 -16.318
lradius 57.4514
lwrist 14.0486
lhand 22.489 26.2206
lfingers 7.12502
lthumb 46.8463 48.9542
rfemur -13.9911 8.76651 13.6327
rtibia 21.9089
rfoot -7.45774 -29.1335
rtoes 3.05542
lfemur -15.0735 -3.80646 -10.642
ltibia 16.8759
lfoot -7.30155 -0.0564517
ltoes -6.62295
1401
root 7.53287 15.8415 1.33119 17.752 -79.6419 -10.3649
lowerback 0.0550358 0.136364 -2.33744
upperback -3.20207 0.0783082 -0.808269
thorax -3.32459 0.0767868 0.476738
lowerneck -17.8059 -5.03019 -4.17311
upperneck 26.6872 -7.8229 5.01302
head 12.1156 -3.43149 1.31855
rclavicle 4.67144e-015 6.36111e-015
rhumerus -33.2833 28.5009 -39.1394
rradius 65.7315
rwrist -36.0539
rhand 34.2072 -12.1545
rfingers 7.12502
rthumb 57.4444 -28.3642
lclavicle 4.67144e-015 6.36111e-015
lhumerus 11.2808 -42.4929 -14.7885
lradius 56.642
lwrist 13.6664
lhand 22.7778 26.1089
lfingers 7.12502
lthumb 47.1135 48.725
rfemur -14.0055 8.78411 13.5858
rtibia 21.8376
rfoot -7.45491 -29.2181
rtoes 3.09738
lfemur -15.1873 -3.77387 -10.6714
ltibia 16.9169
lfoot -7.34946 -0.14279
ltoes -6.52367
1402
root 7.53313 15.8421 1.33848 17.7338 -79.5929 -10.2808
lowerback 0.134966 0.010973 -2.28211
upperback -3.27987 -0.0907968 -0.735437
thorax -3.44579 -0.00666918 0.525611
lowerneck -17.9122 -4.88323 -4.02652
upperneck 26.9313 -7.642 4.88821
head 12.2106 -3.3494 1.27416
rclavicle -3.10228e-014 4.77083e-015
rhumerus -33.7429 25.6658 -39.1596
rradius 66.9822
rwrist -36.5518
rhand 35.1504 -12.9166
rfingers 7.12502
rthumb 58.2681 -28.395
lclavicle -3.10228e-014 4.77083e-015
lhumerus 10.1667 -42.3113 -13.1792
lradius 55.8547
lwrist 13.4133
lhand 23.1859 26.1264
lfingers 7.12502
lthumb 47.4906 48.5734
rfemur -14.0176 8.80596 13.5396
rtibia 21.7581
rfoot -7.43738 -29.2867
rtoes 3.10681
lfemur -15.2932 -3.74181 -10.7009
ltibia 16.9631
lfoot -7.39885 -0.206783
ltoes -6.43071
1403
root 7.53308 15.8427 1.34626 17.7691 -79.5688 -10.2526
lowerback 0.201859 -0.101076 -2.21949
upperback -3.35257 -0.241136 -0.661972
thorax -3.55482 -0.0811157 0.571037
lowerneck -18.0207 -4.74116 -3.87572
upperneck 27.1895 -7.46422 4.74274
head 12.3115 -3.27103 1.22065
rclavicle 1.09704e-014 0
rhumerus -34.2983 22.8107 -39.2133
rradius 68.2942
rwrist -37.0908
rhand 35.9054 -13.6344
rfingers 7.12502
rthumb 58.9231 -28.4975
lclavicle 1.09704e-014 0
lhumerus 9.01064 -42.0798 -11.4928
lradius 55.0815
lwrist 13.2682
lhand 23.6576 26.2604
lfingers 7.12502
lthumb 47.9259 48.5077
rfemur -14.0281 8.84085 13.4961
rtibia 21.6705
rfoot -7.40772 -29.3444
rtoes 3.092
lfemur -15.3907 -3.71055 -10.7279
ltibia 17.0147
lfoot -7.44996 -0.242798
ltoes -6.34561
1404
root 7.53273 15.8433 1.35465 17.8226 -79.5733 -10.2447
lowerback 0.253709 -0.197412 -2.15482
upperback -3.41702 -0.369615 -0.5905
thorax -3.64737 -0.14496 0.612927
lowerneck -18.1223 -4.60554 -3.72183
upperneck 27.443 -7.29165 4.5828
head 12.4099 -3.1969 1.16036
rclavicle -1.23495e-014 2.38542e-015
rhumerus -34.9372 19.9506 -39.2948
rradius 69.6498
rwrist -37.6701
rhand 36.4595 -14.2537
rfingers 7.12502
rthumb 59.4012 -28.6476
lclavicle -1.23495e-014 2.38542e-015
lhumerus 7.81262 -41.7903 -9.72537
lradius 54.3226
lwrist 13.1791
lhand 24.149 26.4533
lfingers 7.12502
lthumb 48.3787 48.4875
rfemur -14.0373 8.88404 13.4473
rtibia 21.5758
rfoot -7.36495 -29.3856
rtoes 3.04934
lfemur -15.4786 -3.68157 -10.7605
ltibia 17.0713
lfoot -7.50222 -0.24671
ltoes -6.28495
1405
root 7.53219 15.8439 1.36355 17.9328 -79.6059 -10.2961
lowerback 0.294265 -0.276894 -2.0805
upperback -3.47288 -0.474593 -0.51958
thorax -3.72529 -0.197565 0.648285
lowerneck -18.2195 -4.4779 -3.57043
upperneck 27.6864 -7.12522 4.41264
head 12.5044 -3.12737 1.09556
rclavicle -7.4917e-015 -1.66979e-014
rhumerus -35.6574 17.1015 -39.3985
rradius 71.047
rwrist -38.2965
rhand 36.7857 -14.6884
rfingers 7.12502
rthumb 59.6816 -28.7987
lclavicle -7.4917e-015 -1.66979e-014
lhumerus 6.56612 -41.4377 -7.87379
lradius 53.5847
lwrist 13.0892
lhand 24.6055 26.6626
lfingers 7.12502
lthumb 48.7987 48.4939
rfemur -14.0469 8.94413 13.4009
rtibia 21.4753
rfoot -7.31019 -29.4169
rtoes 2.97953
lfemur -15.5575 -3.6517 -10.7903
ltibia 17.1329
lfoot -7.55716 -0.219549
ltoes -6.24763
1406
root 7.53147 15.8444 1.37308 18.0717 -79.6687 -10.382
lowerback 0.329711 -0.339688 -2.00018
upperback -3.51993 -0.556593 -0.450505
thorax -3.79187 -0.239073 0.677735
lowerneck -18.3073 -4.35606 -3.42311
upperneck 27.9128 -6.96129 4.23425
head 12.5912 -3.06086 1.02796
rclavicle 6.71519e-015 7.95139e-016
rhumerus -36.4544 14.2832 -39.516
rradius 72.4818
rwrist -38.9849
rhand 36.9399 -14.937
rfingers 7.12502
rthumb 59.8138 -28.9113
lclavicle 6.71519e-015 7.95139e-016
lhumerus 5.25664 -41.0206 -5.93481
lradius 52.8839
lwrist 12.9487
lhand 24.9811 26.8452
lfingers 7.12502
lthumb 49.1438 48.5061
rfemur -14.0549 9.01457 13.3514
rtibia 21.3721
rfoot -7.25065 -29.4321
rtoes 2.89202
lfemur -15.6221 -3.62157 -10.8237
ltibia 17.1974
lfoot -7.61422 -0.162601
ltoes -6.21376
1407
root 7.53076 15.8449 1.38316 18.242 -79.7621 -10.5068
lowerback 0.363706 -0.387205 -1.91564
upperback -3.5562 -0.617526 -0.381964
thorax -3.84709 -0.270345 0.703602
lowerneck -18.398 -4.24402 -3.28434
upperneck 28.1269 -6.804 4.04748
head 12.6749 -2.99933 0.957292
rclavicle -1.02933e-014 4.77083e-015
rhumerus -37.3104 11.5057 -39.6391
rradius 73.944
rwrist -39.7519
rhand 37.0037 -14.9939
rfingers 7.12502
rthumb 59.8684 -28.9116
lclavicle -1.02933e-014 4.77083e-015
lhumerus 3.87375 -40.5361 -3.90767
lradius 52.2296
lwrist 12.741
lhand 25.2552 26.9607
lfingers 7.12502
lthumb 49.3953 48.4953
rfemur -14.0618 9.09802 13.2996
rtibia 21.2684
rfoot -7.18521 -29.4321
rtoes 2.78658
lfemur -15.6714 -3.58191 -10.8604
ltibia 17.2644
lfoot -7.67362 -0.0877928
ltoes -6.17314
1408
root 7.53004 15.8452 1.3937 18.4203 -79.8822 -10.6498
lowerback 0.401393 -0.421644 -1.83166
upperback -3.58191 -0.660596 -0.314373
thorax -3.89393 -0.29279 0.728236
lowerneck -18.4862 -4.13881 -3.15539
upperneck 28.3229 -6.65116 3.86115
head 12.7524 -2.94097 0.887615
rclavicle 3.46569e-014 -8.34896e-015
rhumerus -38.2242 8.7811 -39.7571
rradius 75.4375
rwrist -40.6298
rhand 37.0634 -14.9154
rfingers 7.12502
rthumb 59.9195 -28.7799
lclavicle 3.46569e-014 -8.34896e-015
lhumerus 2.417 -39.989 -1.80085
lradius 51.63
lwrist 12.4814
lhand 25.4378 27.0077
lfingers 7.12502
lthumb 49.5628 48.457
rfemur -14.065 9.19465 13.2429
rtibia 21.1688
rfoot -7.12156 -29.4218
rtoes 2.67366
lfemur -15.7015 -3.52856 -10.9039
ltibia 17.33
lfoot -7.73375 -0.00877072
ltoes -6.11739
